<?xml version="1.0" encoding="utf-8"?>
<!-- Svg Vector Icons : http://www.onlinewebfonts.com/icon -->
<!DOCTYPE svg PUBLIC "-//W3C//DTD SVG 1.1//EN" "http://www.w3.org/Graphics/SVG/1.1/DTD/svg11.dtd">
<svg version="1.1" xmlns="http://www.w3.org/2000/svg" xmlns:xlink="http://www.w3.org/1999/xlink" x="0px" y="0px" viewBox="0 0 1000 1000" enable-background="new 0 0 1000 1000" xml:space="preserve">
<metadata> Svg Vector Icons : http://www.onlinewebfonts.com/icon </metadata>
<g><path d="M978,52.6c-7.5-5.8-17.5-7.7-26.6-5.2L500,166.8L48.6,47.4c-9.1-2.5-19-0.5-26.6,5.2c-7.6,5.7-12,14.6-12,24V802c0,13.7,9.3,25.6,22.7,29.2l459.4,121.5c2.6,0.7,5.3,1,7.9,1c2.7,0,5.3-0.3,7.9-1l459.4-121.5c13.4-3.5,22.7-15.5,22.7-29.2V76.6C990,67.2,985.6,58.3,978,52.6L978,52.6z M385.4,348.1l-214.4-56.7c-16.3-4.4-33.1,5.2-37.5,21.4c-4.3,16.1,5.3,32.7,21.7,37l214.4,56.7c2.7,0.7,5.3,1,8,1c13.5,0,25.9-8.9,29.6-22.4C411.4,369,401.8,352.4,385.4,348.1L385.4,348.1z M385.4,499.2l-214.4-56.7c-16.3-4.3-33.1,5.2-37.5,21.4c-4.3,16.1,5.3,32.7,21.7,37l214.4,56.7c2.7,0.7,5.3,1,8,1c13.5,0,25.9-8.9,29.6-22.4C411.4,520.1,401.8,503.5,385.4,499.2L385.4,499.2z M385.4,650.3l-214.4-56.7c-16.3-4.3-33.1,5.2-37.5,21.4c-4.3,16.1,5.3,32.7,21.7,37l214.4,56.7c2.7,0.7,5.3,1,8,1c13.5,0,25.9-8.9,29.6-22.4C411.4,671.2,401.8,654.6,385.4,650.3L385.4,650.3z M71.3,115.9l398.1,105.3v662.8L71.3,778.8V115.9z M928.8,778.8L530.6,884.1V221.3l398.1-105.3V778.8z M622.5,407.5c2.6,0,5.3-0.3,8-1l214.4-56.7c16.3-4.3,26-20.9,21.7-37c-4.4-16.1-21.2-25.7-37.5-21.4l-214.4,56.7c-16.3,4.3-26,20.9-21.7,37C596.6,398.6,609,407.5,622.5,407.5L622.5,407.5z M622.5,558.6c2.6,0,5.3-0.3,8-1l214.4-56.7c16.3-4.3,26-20.9,21.7-37c-4.4-16.1-21.2-25.7-37.5-21.4l-214.4,56.7c-16.3,4.3-26,20.9-21.7,37C596.6,549.7,609,558.6,622.5,558.6L622.5,558.6z M622.5,709.7c2.6,0,5.3-0.3,8-1L844.8,652c16.3-4.3,26-20.9,21.7-37c-4.4-16.1-21.2-25.7-37.5-21.4l-214.4,56.7c-16.3,4.3-26,20.9-21.7,37C596.6,700.9,609,709.7,622.5,709.7L622.5,709.7z"/></g>
</svg>