<svg id="Layer_3" enable-background="new 0 0 64 64" height="512" viewBox="0 0 64 64" width="512" xmlns="http://www.w3.org/2000/svg"><path d="m18 5h-12c-.553 0-1 .447-1 1v4c0 .553.447 1 1 1h12c.553 0 1-.447 1-1v-4c0-.553-.447-1-1-1zm-1 4h-10v-2h10z"/><path d="m21 5h20v2h-20z"/><path d="m21 9h20v2h-20z"/><path d="m18 13h-12c-.553 0-1 .447-1 1v4c0 .553.447 1 1 1h12c.553 0 1-.447 1-1v-4c0-.553-.447-1-1-1zm-1 4h-10v-2h10z"/><path d="m21 13h20v2h-20z"/><path d="m18 21h-12c-.553 0-1 .447-1 1v4c0 .553.447 1 1 1h12c.553 0 1-.447 1-1v-4c0-.553-.447-1-1-1zm-1 4h-10v-2h10z"/><path d="m18 29h-12c-.553 0-1 .447-1 1v4c0 .553.447 1 1 1h12c.553 0 1-.447 1-1v-4c0-.553-.447-1-1-1zm-1 4h-10v-2h10z"/><path d="m18 37h-12c-.553 0-1 .447-1 1v4c0 .553.447 1 1 1h12c.553 0 1-.447 1-1v-4c0-.553-.447-1-1-1zm-1 4h-10v-2h10z"/><path d="m21 37h15v2h-15z"/><path d="m21 41h15v2h-15z"/><path d="m18 45h-12c-.553 0-1 .447-1 1v4c0 .553.447 1 1 1h12c.553 0 1-.447 1-1v-4c0-.553-.447-1-1-1zm-1 4h-10v-2h10z"/><path d="m21 45h15v2h-15z"/><path d="m21 49h11v2h-11z"/><path d="m62 7.414c.645-.644 1-1.502 1-2.414s-.355-1.77-1-2.414l-.586-.586c-1.289-1.289-3.539-1.289-4.828 0l-11.586 11.586v-11.586c0-.553-.447-1-1-1h-42c-.553 0-1 .447-1 1v56c0 .553.447 1 1 1h31v3c0 .553.447 1 1 1h24c.553 0 1-.447 1-1v-7.172c0-2.061-.836-4.078-2.293-5.535s-3.475-2.293-5.535-2.293h-1.172v-1.082c2.387-1.386 4-3.964 4-6.918 0-4.411-3.589-8-8-8-.339 0-.672.028-1 .069v-6.655zm-25.688 22.312-4.076 2.038 2.038-4.076zm-.898-3.726 18.586-18.586 2.586 2.586-18.586 18.586zm22.586-22.586c.535-.533 1.465-.533 2 0l.586.586c.267.268.414.622.414 1s-.147.732-.414 1l-2.586 2.586-2.586-2.586zm-15.5 45.586 1.981 2.641-1.897.949-1.197-3.59zm7 0h1.113l-1.197 3.59-1.897-.949zm-10.153.201 1.705 5.116c.091.274.298.496.565.607.123.051.253.076.383.076.153 0 .307-.035.447-.105l2.553-1.277v7.382h-6v-4h-2v4h-2v-6.172c0-1.534.622-3.036 1.707-4.121.73-.73 1.65-1.244 2.64-1.506zm17.653 5.627v6.172h-2v-4h-2v4h-6v-7.382l2.553 1.276c.14.071.294.106.447.106.13 0 .26-.025.383-.076.268-.111.475-.333.565-.607l1.705-5.116c.99.263 1.91.777 2.64 1.506 1.085 1.085 1.707 2.587 1.707 4.121zm-9-7.161-2 2.666-2-2.666v-.93c.641.166 1.308.263 2 .263s1.359-.097 2-.263zm-2-2.667c-2.986 0-5.47-2.193-5.926-5.053 2.2-.219 4.255-1.108 5.926-2.567 1.671 1.459 3.726 2.349 5.926 2.567-.456 2.86-2.94 5.053-5.926 5.053zm5.898-7.078c-1.894-.24-3.647-1.086-5.019-2.458l-.172-.172c-.391-.391-1.023-.391-1.414 0l-.172.172c-1.372 1.372-3.125 2.218-5.019 2.458.51-2.795 2.958-4.922 5.898-4.922s5.388 2.127 5.898 4.922zm-8.898-6.333c-2.928 1.19-5 4.061-5 7.411 0 2.953 1.613 5.532 4 6.918v1.082h-1.172c-2.061 0-4.078.836-5.535 2.293s-2.293 3.475-2.293 5.535v2.172h-30v-54h40v12.586l-2 2v-.586h-20v2h18.586l-2 2h-16.586v2h14.586l-2 2h-12.586v2h11.382l-1 2h-10.382v2h9.382l-1 2h-8.382v2h9c.152 0 .305-.034.447-.105l8-4-.006-.011c.094-.047.187-.098.265-.176l4.294-4.294z"/></svg>