<svg version="1.1"
    xmlns="http://www.w3.org/2000/svg" width="120" height="120" x="0px" y="0px" viewBox="0 0 1000 1000" enable-background="new 0 0 1000 1000" xml:space="preserve">
    <g>
		<path d="M424.8,915.4H115.2V82.2h769.5v361.3h31.2c24.5,0,25.1,6.1,43.4,24.5V101.9c0-49-42.9-91.9-91.9-91.9h-735c-49,0-91.9,42.9-91.9,91.9v796.2c0,49,42.9,91.9,91.9,91.9h316.8c-12.3-18.4-24.5-18.9-24.5-43.4V915.4L424.8,915.4z"/>
        <path d="M285.6,316.3h428.7v61.2H285.6V316.3z"/>
        <path d="M285.6,683.7h127.2V745H285.6V683.7z"/>
        <path d="M285.6,500h127.2c0-24.5,6.1-42.9,18.4-61.3H279.5V500H285.6z"/>
        <path d="M285.6,561.3h127.2v61.2H285.6V561.3z"/>
        <path d="M696.6,469.5c-143.7,0-260.2,116.5-260.2,260.2s116.5,260.2,260.2,260.2c143.7,0,260.2-116.5,260.2-260.2S840.3,469.5,696.6,469.5z M653.7,861.4L525.1,732.8l49-49l79.6,79.6L819.1,598l49,49L653.7,861.4z"/>
	</g>
</svg>