<?xml version="1.0" encoding="iso-8859-1"?>
<!-- Generator: Adobe Illustrator 19.0.0, SVG Export Plug-In . SVG Version: 6.00 Build 0)  -->
<svg version="1.1" id="Capa_1" xmlns="http://www.w3.org/2000/svg" xmlns:xlink="http://www.w3.org/1999/xlink" x="0px" y="0px"
	 viewBox="0 0 431.8 431.8" style="enable-background:new 0 0 431.8 431.8;" xml:space="preserve">
<g>
	<g>
		<path d="M431.6,100.45l0-29c0-25.3-20.5-45.8-45.9-45.8c-25.3,0-45.8,20.5-45.8,45.8l-0.1,29l-0.2,214.6c0,1.4,0.3,2.8,0.9,4.1
			l36.1,81.4c1.6,3.6,5.2,5.8,9.1,5.7c3.9,0.1,7.5-2.2,9.1-5.7l36.1-81.5c0.6-1.3,0.9-2.6,0.9-4L431.6,100.45z M359.9,71.45
			c0-14.3,11.6-25.8,25.9-25.8c14.3,0,25.8,11.6,25.8,25.8v18.9h-51.7V71.45z M385.8,372.25l-20.8-46.9h41.5L385.8,372.25z
			 M359.7,305.35l0.2-195h51.8l0.2,195H359.7z"/>
	</g>
</g>
<g>
	<g>
		<path d="M250.7,24.35H41.3C18.5,24.35,0,42.85,0,65.65v300.5c0,22.8,18.5,41.3,41.3,41.3h209.5c22.8,0,41.3-18.5,41.3-41.3V65.65
			C292,42.85,273.5,24.35,250.7,24.35z M272.1,366.05H272c0,11.7-9.5,21.3-21.3,21.3H41.3c-11.7,0-21.3-9.5-21.3-21.3V65.65
			c0-11.7,9.5-21.3,21.3-21.3h209.5c11.7,0,21.3,9.5,21.3,21.3V366.05z"/>
	</g>
</g>
<g>
	<g>
		<path d="M242,65.35H50c-5.5,0-10,4.5-10,10v59c0,5.5,4.5,10,10,10h192c5.5,0,10-4.5,10-10v-59C252,69.85,247.5,65.35,242,65.35z
			 M232,125.35H60v-40h172V125.35z"/>
	</g>
</g>
<g>
	<g>
		<path d="M94,229.35H50c-5.5,0-10,4.5-10,10v40c0,5.5,4.5,10,10,10h44c5.5,0,10-4.5,10-10v-40C104,233.85,99.5,229.35,94,229.35z
			 M83,269.35H60v-20h23V269.35z"/>
	</g>
</g>
<g>
	<g>
		<path d="M94,298.35H50c-5.5,0-10,4.5-10,10v40c0,5.5,4.5,10,10,10h44c5.5,0,10-4.5,10-10v-40C104,302.85,99.5,298.35,94,298.35z
			 M83,338.35H60v-20h23V338.35z"/>
	</g>
</g>
<g>
	<g>
		<path d="M168,229.35h-44c-5.5,0-10,4.5-10,10v40c0,5.5,4.5,10,10,10h44c5.5,0,10-4.5,10-10v-40
			C178,233.85,173.5,229.35,168,229.35z M157,269.35h-23v-20h23V269.35z"/>
	</g>
</g>
<g>
	<g>
		<path d="M168,298.35h-44c-5.5,0-10,4.5-10,10v40c0,5.5,4.5,10,10,10h44c5.5,0,10-4.5,10-10v-40
			C178,302.85,173.5,298.35,168,298.35z M157,338.35h-23v-20h23V338.35z"/>
	</g>
</g>
<g>
	<g>
		<path d="M241,229.35h-44c-5.5,0-10,4.5-10,10v109c0,5.5,4.5,10,10,10h44c5.5,0,10-4.5,10-10v-109
			C251,233.85,246.5,229.35,241,229.35z M231,338.35h-24v-89h24V338.35z"/>
	</g>
</g>
<g>
	<g>
		<path d="M241,160.35h-44c-5.5,0-10,4.5-10,10v40c0,5.5,4.5,10,10,10h44c5.5,0,10-4.5,10-10v-40
			C251,164.85,246.5,160.35,241,160.35z M231,201.35h-24v-21h24V201.35z"/>
	</g>
</g>
<g>
	<g>
		<path d="M94,160.35H50c-5.5,0-10,4.5-10,10v40c0,5.5,4.5,10,10,10h44c5.5,0,10-4.5,10-10v-40C104,164.85,99.5,160.35,94,160.35z
			 M83,201.35H60v-21h23V201.35z"/>
	</g>
</g>
<g>
	<g>
		<path d="M168,160.35h-44c-5.5,0-10,4.5-10,10v40c0,5.5,4.5,10,10,10h44c5.5,0,10-4.5,10-10v-40
			C178,164.85,173.5,160.35,168,160.35z M157,201.35h-23v-21h23V201.35z"/>
	</g>
</g>
<g>
</g>
<g>
</g>
<g>
</g>
<g>
</g>
<g>
</g>
<g>
</g>
<g>
</g>
<g>
</g>
<g>
</g>
<g>
</g>
<g>
</g>
<g>
</g>
<g>
</g>
<g>
</g>
<g>
</g>
</svg>
